<svg width="25" height="24" viewBox="0 0 25 24" fill="none" xmlns="http://www.w3.org/2000/svg">
<path d="M12.3334 20.25C12.3334 20.25 2.95837 15 2.95837 8.62501C2.95856 7.49826 3.34899 6.40635 4.06326 5.53493C4.77753 4.66351 5.77157 4.06636 6.87636 3.84501C7.98116 3.62367 9.12851 3.79179 10.1234 4.32079C11.1182 4.84979 11.8991 5.70702 12.3334 6.74673L12.3334 6.74673C12.7676 5.70702 13.5485 4.84979 14.5434 4.32079C15.5382 3.79179 16.6856 3.62367 17.7904 3.84501C18.8952 4.06636 19.8892 4.66351 20.6035 5.53493C21.3178 6.40635 21.7082 7.49826 21.7084 8.62501C21.7084 15 12.3334 20.25 12.3334 20.25Z" fill="#DC5683"/>
</svg>
