<svg width="64" height="64" viewBox="0 0 64 64" fill="none" xmlns="http://www.w3.org/2000/svg">
<path d="M55.2519 18.7507H51.9184C51.4806 18.7507 51.0471 18.837 50.6426 19.0045C50.2384 19.172 49.8709 19.4175 49.5611 19.727C49.2516 20.0367 49.0061 20.4042 48.8386 20.8085C48.6711 21.213 48.5849 21.6465 48.5849 22.0842V35.419C48.5849 39.8394 46.8289 44.0788 43.7031 47.2046C40.5774 50.3304 36.3381 52.0864 31.9176 52.0865C29.7288 52.0865 27.5615 51.6554 25.5393 50.8177C23.5171 49.9801 21.6797 48.7524 20.132 47.2047C18.5843 45.6569 17.3566 43.8195 16.519 41.7973C15.6814 39.7752 15.2503 37.6078 15.2504 35.419L15.2504 22.0852C15.2505 21.6475 15.1644 21.2137 14.9969 20.8092C14.8294 20.4047 14.5839 20.037 14.2744 19.7275C13.9648 19.4177 13.5973 19.1722 13.1928 19.0045C12.7883 18.837 12.3547 18.7507 11.9169 18.7507H8.58337L8.58338 35.4182C8.58338 38.4825 9.18694 41.5168 10.3596 44.3478C11.5323 47.1789 13.2511 49.7512 15.4178 51.9179C17.5846 54.0847 20.157 55.8035 22.988 56.9761C25.819 58.1487 28.8533 58.7523 31.9176 58.7522C38.1061 58.7522 44.0414 56.2939 48.4174 51.9179C52.7934 47.5419 55.2519 41.6068 55.2519 35.4182V18.7507Z" fill="url(#paint0_linear_1217_3444)"/>
<path d="M31.9176 45.4195C34.5699 45.4195 37.1134 44.3659 38.9886 42.4905C40.8641 40.6152 41.9176 38.0716 41.9176 35.4195V18.7507C41.9176 16.9825 42.6201 15.287 43.8704 14.0367C45.1206 12.7865 46.8164 12.084 48.5846 12.084L55.2516 12.084V5.41699L48.5849 5.41699C45.0486 5.41699 41.6571 6.82174 39.1564 9.32224C36.6559 11.823 35.2511 15.2145 35.2511 18.7507L35.2511 35.419C35.2511 36.3031 34.8999 37.151 34.2749 37.7761C33.6496 38.4013 32.8017 38.7525 31.9176 38.7525C31.0335 38.7525 30.1856 38.4013 29.5605 37.7761C28.9353 37.151 28.5841 36.3031 28.5841 35.419L28.5841 18.7507C28.5841 15.2145 27.1793 11.823 24.6787 9.32224C22.1782 6.82174 18.7867 5.41699 15.2504 5.41699L8.58337 5.41699L8.58337 12.085H15.2504C17.0183 12.085 18.7139 12.7872 19.9641 14.0372C21.2143 15.2872 21.9168 16.9827 21.9171 18.7507V35.419C21.917 36.7323 22.1757 38.0327 22.6782 39.2461C23.1808 40.4594 23.9174 41.5619 24.846 42.4905C25.7747 43.4192 26.8772 44.1558 28.0905 44.6584C29.3039 45.1609 30.6043 45.4195 31.9176 45.4195Z" fill="url(#paint1_linear_1217_3444)"/>
<defs>
<linearGradient id="paint0_linear_1217_3444" x1="31.9591" y1="-5.7515" x2="-4.33856" y2="54.8271" gradientUnits="userSpaceOnUse">
<stop stop-color="#FDAE8F"/>
<stop offset="1" stop-color="#FD1C68"/>
</linearGradient>
<linearGradient id="paint1_linear_1217_3444" x1="31.9591" y1="-5.7515" x2="-4.33856" y2="54.8271" gradientUnits="userSpaceOnUse">
<stop stop-color="#FDAE8F"/>
<stop offset="1" stop-color="#FD1C68"/>
</linearGradient>
</defs>
</svg>
